<?xml version="1.0" standalone="no"?>
<!DOCTYPE svg PUBLIC "-//W3C//DTD SVG 20010904//EN"
 "http://www.w3.org/TR/2001/REC-SVG-20010904/DTD/svg10.dtd">
<svg version="1.0" xmlns="http://www.w3.org/2000/svg"
 width="296.000000pt" height="72.000000pt" viewBox="0 0 296.000000 72.000000"
 preserveAspectRatio="xMidYMid meet">

<g transform="translate(0.000000,72.000000) scale(0.100000,-0.100000)"
fill="#000000" stroke="none">
<path d="M2567 653 c-4 -3 -7 -14 -7 -24 0 -24 -53 -52 -68 -37 -18 18 -42 -9
-36 -40 5 -31 -13 -58 -41 -63 -25 -5 -32 -39 -11 -51 22 -12 22 -78 0 -78
-24 0 -14 -44 12 -48 32 -5 59 33 61 88 2 57 21 98 63 134 39 32 68 40 127 33
85 -9 135 -66 141 -160 3 -53 0 -67 -20 -97 -37 -55 -82 -80 -144 -80 -43 0
-56 -4 -68 -22 -23 -33 -21 -68 4 -68 11 0 23 7 26 15 8 20 70 20 78 0 3 -8
15 -15 26 -15 14 0 20 7 20 24 0 29 51 56 74 37 20 -17 44 14 29 37 -15 23 11
72 38 72 26 0 37 30 16 45 -22 16 -22 71 -1 83 21 12 9 52 -16 52 -26 0 -51
41 -38 64 13 24 -15 57 -33 39 -17 -17 -69 11 -69 38 0 26 -30 37 -45 16 -15
-21 -71 -22 -79 -2 -6 15 -28 20 -39 8z"/>
<path d="M1288 433 c-48 -115 -94 -225 -102 -245 l-16 -38 40 0 c40 0 42 2 62
50 l21 50 87 0 88 0 18 -50 c18 -49 19 -50 60 -50 l41 0 -101 245 c-55 135
-104 245 -107 245 -3 0 -44 -93 -91 -207z m125 -50 l26 -63 -60 0 -59 0 21 53
c12 28 24 60 27 70 7 25 16 13 45 -60z"/>
<path d="M1622 436 c3 -191 3 -195 28 -222 75 -80 207 -84 282 -7 l33 34 3
195 3 194 -35 0 -36 0 0 -173 c0 -139 -3 -177 -15 -194 -21 -31 -81 -45 -128
-32 -63 17 -67 32 -67 226 l0 173 -36 0 -35 0 3 -194z"/>
<path d="M2040 595 l0 -35 65 0 65 0 0 -205 0 -205 35 0 35 0 0 205 0 205 70
0 70 0 0 35 0 35 -170 0 -170 0 0 -35z"/>
</g>
</svg>
